<svg width="18" height="20" fill="none" xmlns="http://www.w3.org/2000/svg"><path d="M6.95 15.77c-.83 0-1.66-.32-2.3-.95a3.253 3.253 0 010-4.6l4.6-4.6c.29-.29.77-.29 1.06 0 .29.29.29.77 0 1.06l-4.6 4.6c-.68.68-.68 1.79 0 2.48.68.68 1.79.68 2.48 0l6.72-6.72c.29-.29.77-.29 1.06 0 .29.29.29.77 0 1.06l-6.72 6.72c-.63.64-1.46.95-2.3.95zm-4.59-5.68c-.19 0-.38-.07-.53-.22a.754.754 0 010-1.06l7.42-7.42c.29-.29.77-.29 1.06 0 .29.29.29.77 0 1.06L2.89 9.87c-.15.15-.34.22-.53.22z" fill="#ADADAD"/><path d="M6.25 19.48c-1.6 0-3.2-.61-4.42-1.83a6.253 6.253 0 010-8.84c.29-.29.77-.29 1.06 0 .29.29.29.77 0 1.06a4.762 4.762 0 000 6.72 4.762 4.762 0 006.72 0c.29-.29.77-.29 1.06 0 .29.29.29.77 0 1.06a6.231 6.231 0 01-4.42 1.83zm9.19-11.15c-.19 0-.38-.07-.53-.22a.754.754 0 010-1.06 3.253 3.253 0 00-4.6-4.6c-.29.29-.77.29-1.06 0a.754.754 0 010-1.06 4.762 4.762 0 016.72 0 4.762 4.762 0 010 6.72c-.15.14-.34.22-.53.22z" fill="#ADADAD"/><path d="M10.14 17.87c-.19 0-.38-.07-.53-.22a.754.754 0 010-1.06l5.3-5.3c.29-.29.77-.29 1.06 0 .29.29.29.77 0 1.06l-5.3 5.3c-.15.15-.34.22-.53.22z" fill="#ADADAD"/></svg>