<svg width="20" height="20" fill="none" xmlns="http://www.w3.org/2000/svg"><path d="M10 0C4.482 0 0 4.482 0 10s4.482 10 10 10 10-4.482 10-10S15.518 0 10 0zm0 18.462c-4.667 0-8.462-3.795-8.462-8.462S5.333 1.538 10 1.538 18.462 5.333 18.462 10 14.667 18.462 10 18.462z" fill="#ADADAD"/><path d="M13.415 6.667c-.564 0-1.025.461-1.025 1.025 0 .564.461 1.026 1.025 1.026.565 0 1.026-.462 1.026-1.026 0-.564-.462-1.025-1.026-1.025zM6.554 8.718c.564 0 1.025-.462 1.025-1.026 0-.564-.461-1.025-1.025-1.025a1.03 1.03 0 00-1.026 1.036c0 .553.462 1.015 1.026 1.015zm6.492 4.512c-.051.042-1.17 1.129-3.046 1.129-1.877 0-3.005-1.077-3.046-1.118a.774.774 0 00-1.087 0 .774.774 0 000 1.087c.061.062 1.6 1.57 4.133 1.57s4.072-1.508 4.133-1.57a.774.774 0 000-1.087.784.784 0 00-1.087-.01z" fill="#ADADAD"/></svg>